<svg width="80" height="80" viewBox="0 0 80 80" xmlns="http://www.w3.org/2000/svg">
  <!-- Background Circle -->
  <circle cx="40" cy="40" r="35" fill="#ffffff" stroke="#FF6B35" stroke-width="2"/>
  
  <!-- Dog head -->
  <circle cx="40" cy="40" r="18" fill="#FFFFFF" stroke="#8B4513" stroke-width="1"/>
  
  <!-- Dog ears -->
  <ellipse cx="28" cy="30" rx="6" ry="10" fill="#8B4513" transform="rotate(-25 28 30)"/>
  <ellipse cx="52" cy="30" rx="6" ry="10" fill="#8B4513" transform="rotate(25 52 30)"/>
  
  <!-- Dog eyes -->
  <circle cx="35" cy="35" r="2" fill="#000000"/>
  <circle cx="45" cy="35" r="2" fill="#000000"/>
  <circle cx="35.5" cy="34.5" r="0.5" fill="#FFFFFF"/>
  <circle cx="45.5" cy="34.5" r="0.5" fill="#FFFFFF"/>
  
  <!-- Dog nose -->
  <ellipse cx="40" cy="43" rx="1.5" ry="1" fill="#000000"/>
  
  <!-- Dog mouth -->
  <path d="M 40 45 Q 37 47 35 45.5" stroke="#000000" stroke-width="0.5" fill="none"/>
  <path d="M 40 45 Q 43 47 45 45.5" stroke="#000000" stroke-width="0.5" fill="none"/>
  
  <!-- Dog hat (brown explorer hat) -->
  <ellipse cx="40" cy="22" rx="22" ry="6" fill="#8B4513"/>
  <circle cx="40" cy="25" r="14" fill="#8B4513"/>
  <circle cx="40" cy="25" r="12" fill="#A0522D"/>
  
  <!-- Hat band -->
  <ellipse cx="40" cy="32" rx="16" ry="2" fill="#654321"/>
  
  <!-- Sunglasses -->
  <ellipse cx="35" cy="35" rx="4" ry="3" fill="#000000" opacity="0.7"/>
  <ellipse cx="45" cy="35" rx="4" ry="3" fill="#000000" opacity="0.7"/>
  <rect x="39" y="34" width="2" height="1" fill="#000000"/>
  
  <!-- Red bandana/neckerchief -->
  <path d="M 28 50 Q 40 53 52 50 Q 45 60 40 57 Q 35 60 28 50" fill="#DC143C"/>
  <polygon points="28,50 31,53 35,57 30,61 24,53" fill="#B22222"/>
</svg>