<?xml version="1.0" encoding="UTF-8"?>
<svg width="400" height="400" viewBox="0 0 400 400" fill="none" xmlns="http://www.w3.org/2000/svg">
  <!-- Based on exact user-uploaded full circular logo with black border -->
  
  <!-- Black circular border (thick, exactly as in upload) -->
  <circle cx="200" cy="200" r="195" fill="none" stroke="#000000" stroke-width="10"/>
  <circle cx="200" cy="200" r="180" fill="#FFFFFF"/>
  
  <!-- Yellow sun with rays -->
  <g id="sun">
    <circle cx="130" cy="100" r="20" fill="#FFD700"/>
    <g id="sun-rays">
      <line x1="130" y1="70" x2="130" y2="78" stroke="#FFD700" stroke-width="2.5"/>
      <line x1="130" y1="122" x2="130" y2="130" stroke="#FFD700" stroke-width="2.5"/>
      <line x1="100" y1="100" x2="108" y2="100" stroke="#FFD700" stroke-width="2.5"/>
      <line x1="152" y1="100" x2="160" y2="100" stroke="#FFD700" stroke-width="2.5"/>
      <line x1="113" y1="83" x2="119" y2="89" stroke="#FFD700" stroke-width="2.5"/>
      <line x1="141" y1="111" x2="147" y2="117" stroke="#FFD700" stroke-width="2.5"/>
      <line x1="147" y1="83" x2="141" y2="89" stroke="#FFD700" stroke-width="2.5"/>
      <line x1="119" y1="111" x2="113" y2="117" stroke="#FFD700" stroke-width="2.5"/>
    </g>
  </g>
  
  <!-- Tricolor arc -->
  <path d="M 110 130 Q 200 80 290 130" stroke="#FF6600" stroke-width="10" fill="none"/>
  <path d="M 113 135 Q 200 88 287 135" stroke="#FFFFFF" stroke-width="6" fill="none"/>
  <path d="M 116 140 Q 200 96 284 140" stroke="#138808" stroke-width="10" fill="none"/>
  
  <!-- Green airplane -->
  <g id="airplane" transform="translate(270, 125) rotate(-12)">
    <path d="M 0 0 L 12 2.5 L 10 0 L 12 -2.5 Z" fill="#138808"/>
    <path d="M 2.5 -1 L 6 -3 L 7 -1.5 L 4 1 Z" fill="#138808"/>
    <path d="M 2.5 1 L 6 3 L 7 1.5 L 4 -1 Z" fill="#138808"/>
  </g>
  
  <!-- White dog (scaled to fit circular format) -->
  <g id="dog" transform="translate(200, 200)">
    <!-- Body -->
    <ellipse cx="0" cy="20" rx="28" ry="22" fill="#FFFFFF" stroke="#000000" stroke-width="2"/>
    
    <!-- Head -->
    <circle cx="0" cy="-5" r="23" fill="#FFFFFF" stroke="#000000" stroke-width="2"/>
    
    <!-- Ears -->
    <ellipse cx="-16" cy="-12" rx="6" ry="13" fill="#E8E8E8" stroke="#000000" stroke-width="1.5" transform="rotate(-15)"/>
    <ellipse cx="16" cy="-12" rx="6" ry="13" fill="#E8E8E8" stroke="#000000" stroke-width="1.5" transform="rotate(15)"/>
    
    <!-- Brown hat -->
    <ellipse cx="0" cy="-22" rx="20" ry="6" fill="#8B4513"/>
    <ellipse cx="0" cy="-25" rx="15" ry="5" fill="#A0522D"/>
    <rect x="-1" y="-28" width="2" height="2" fill="#8B4513"/>
    <line x1="-16" y1="-22" x2="16" y2="-22" stroke="#654321" stroke-width="1"/>
    
    <!-- Black sunglasses -->
    <ellipse cx="-6" cy="-4" rx="5" ry="4" fill="#000000"/>
    <ellipse cx="6" cy="-4" rx="5" ry="4" fill="#000000"/>
    <line x1="-1" y1="-4" x2="1" y2="-4" stroke="#000000" stroke-width="1"/>
    <line x1="-11" y1="-4" x2="-14" y2="-2" stroke="#000000" stroke-width="1"/>
    <line x1="11" y1="-4" x2="14" y2="-2" stroke="#000000" stroke-width="1"/>
    
    <!-- Red bandana -->
    <path d="M -13 6 L 0 14 L 13 6 L 10 -1 L -10 -1 Z" fill="#DC143C"/>
    <path d="M -10 9 L 0 12 L 10 9" stroke="#B22222" stroke-width="1"/>
    
    <!-- Black nose -->
    <ellipse cx="0" cy="1" rx="2" ry="1.5" fill="#000000"/>
    
    <!-- Pink tongue -->
    <ellipse cx="3" cy="6" rx="2.5" ry="4" fill="#FF69B4"/>
    
    <!-- Mouth -->
    <path d="M -5 4 Q 0 7 5 4" stroke="#000000" stroke-width="1" fill="none"/>
    
    <!-- Legs -->
    <ellipse cx="-12" cy="38" rx="4" ry="11" fill="#FFFFFF" stroke="#000000" stroke-width="1.5"/>
    <ellipse cx="-4" cy="38" rx="4" ry="11" fill="#FFFFFF" stroke="#000000" stroke-width="1.5"/>
    <ellipse cx="4" cy="38" rx="4" ry="11" fill="#FFFFFF" stroke="#000000" stroke-width="1.5"/>
    <ellipse cx="12" cy="38" rx="4" ry="11" fill="#FFFFFF" stroke="#000000" stroke-width="1.5"/>
    
    <!-- Tail -->
    <path d="M -25 15 Q -40 12 -37 -2 Q -33 -8 -30 -5" stroke="#000000" stroke-width="2" fill="none"/>
  </g>
  
  <!-- Brown suitcase (scaled to fit) -->
  <g id="suitcase" transform="translate(280, 240)">
    <rect x="0" y="0" width="35" height="28" fill="#8B4513" stroke="#654321" stroke-width="1.5" rx="2"/>
    <rect x="2" y="2" width="31" height="24" fill="#A0522D" rx="1"/>
    
    <!-- Handle -->
    <rect x="15" y="-2" width="4" height="4" fill="#654321" rx="1"/>
    
    <!-- Travel stickers -->
    <circle cx="9" cy="7" r="2.5" fill="#FF6600"/>
    <rect x="20" y="12" width="5" height="3" fill="#138808" rx="0.5"/>
    <circle cx="12" cy="19" r="2" fill="#1E90FF"/>
    <rect x="24" y="5" width="4" height="3" fill="#FFD700" rx="0.5"/>
    
    <!-- Corner reinforcements -->
    <circle cx="3" cy="3" r="1" fill="#654321"/>
    <circle cx="32" cy="3" r="1" fill="#654321"/>
    <circle cx="3" cy="25" r="1" fill="#654321"/>
    <circle cx="32" cy="25" r="1" fill="#654321"/>
    
    <!-- Wheels -->
    <circle cx="8" cy="30" r="2" fill="#333333"/>
    <circle cx="27" cy="30" r="2" fill="#333333"/>
  </g>
  
  <!-- Small floating stickers -->
  <g id="floating-stickers">
    <rect x="320" y="180" width="6" height="4" fill="#FFD700" rx="1" transform="rotate(10)"/>
    <rect x="310" y="220" width="4" height="6" fill="#FF6600" rx="1" transform="rotate(-15)"/>
    <circle cx="335" cy="250" r="2.5" fill="#1E90FF"/>
    <rect x="90" y="280" width="5" height="4" fill="#138808" rx="0.5" transform="rotate(25)"/>
  </g>
</svg>