<svg width="300" height="240" viewBox="0 0 300 240" xmlns="http://www.w3.org/2000/svg">
  <!-- Background Circle -->
  <circle cx="150" cy="120" r="115" fill="#ffffff" stroke="#FF6B35" stroke-width="3"/>
  
  <!-- Sun in background -->
  <circle cx="230" cy="50" r="25" fill="#FFD700"/>
  <path d="M230 15 L235 25 L245 20 L240 30 L255 30 L245 35 L250 45 L240 40 L235 50 L230 45 L225 50 L220 40 L210 45 L215 35 L200 30 L215 25 L210 20 L220 25 L225 15 Z" fill="#FFD700"/>
  
  <!-- Tricolor arc (background) -->
  <path d="M 50 120 Q 150 40 250 120" stroke="#FF6B35" stroke-width="8" fill="none"/>
  <path d="M 55 125 Q 150 50 245 125" stroke="#FFFFFF" stroke-width="6" fill="none"/>
  <path d="M 60 130 Q 150 60 240 130" stroke="#4CAF50" stroke-width="6" fill="none"/>
  
  <!-- Dog body -->
  <ellipse cx="135" cy="160" rx="25" ry="15" fill="#FFFFFF"/>
  
  <!-- Dog head -->
  <circle cx="135" cy="135" r="22" fill="#FFFFFF" stroke="#8B4513" stroke-width="2"/>
  
  <!-- Dog ears -->
  <ellipse cx="120" cy="125" rx="8" ry="15" fill="#8B4513" transform="rotate(-30 120 125)"/>
  <ellipse cx="150" cy="125" rx="8" ry="15" fill="#8B4513" transform="rotate(30 150 125)"/>
  
  <!-- Dog eyes -->
  <circle cx="128" cy="130" r="3" fill="#000000"/>
  <circle cx="142" cy="130" r="3" fill="#000000"/>
  <circle cx="129" cy="129" r="1" fill="#FFFFFF"/>
  <circle cx="143" cy="129" r="1" fill="#FFFFFF"/>
  
  <!-- Dog nose -->
  <ellipse cx="135" cy="140" rx="2" ry="1.5" fill="#000000"/>
  
  <!-- Dog mouth -->
  <path d="M 135 142 Q 130 145 128 143" stroke="#000000" stroke-width="1" fill="none"/>
  <path d="M 135 142 Q 140 145 142 143" stroke="#000000" stroke-width="1" fill="none"/>
  
  <!-- Dog hat (brown explorer hat) -->
  <ellipse cx="135" cy="115" rx="28" ry="8" fill="#8B4513"/>
  <circle cx="135" cy="118" r="18" fill="#8B4513"/>
  <circle cx="135" cy="118" r="15" fill="#A0522D"/>
  
  <!-- Hat band -->
  <ellipse cx="135" cy="125" rx="20" ry="3" fill="#654321"/>
  
  <!-- Sunglasses -->
  <ellipse cx="128" cy="130" rx="6" ry="4" fill="#000000" opacity="0.8"/>
  <ellipse cx="142" cy="130" rx="6" ry="4" fill="#000000" opacity="0.8"/>
  <rect x="134" y="128" width="4" height="2" fill="#000000"/>
  
  <!-- Red bandana/neckerchief -->
  <path d="M 120 145 Q 135 150 150 145 Q 140 160 135 155 Q 130 160 120 145" fill="#DC143C"/>
  <polygon points="120,145 125,150 130,155 125,160 115,150" fill="#B22222"/>
  
  <!-- Suitcase (small) -->
  <rect x="170" y="155" width="20" height="15" rx="2" fill="#8B4513"/>
  <rect x="172" y="157" width="16" height="11" fill="#D2691E"/>
  <circle cx="175" cy="162.5" r="1" fill="#FFD700"/>
  <rect x="185" y="158" width="2" height="4" fill="#654321"/>
  
  <!-- Airplane (green) -->
  <path d="M 200 80 L 220 85 L 225 82 L 230 85 L 228 88 L 225 90 L 220 87 L 215 90 L 210 88 L 205 85 L 200 80" fill="#4CAF50"/>
  <path d="M 210 85 L 215 78 L 218 82 L 215 85" fill="#4CAF50"/>
  <path d="M 210 85 L 215 92 L 218 88 L 215 85" fill="#4CAF50"/>
  
  <!-- Maku.Travel Text -->
  <text x="150" y="200" text-anchor="middle" font-family="Arial Black, sans-serif" font-size="24" font-weight="bold" fill="#FF6B35">Maku</text>
  <text x="150" y="220" text-anchor="middle" font-family="Arial, sans-serif" font-size="16" font-weight="normal" fill="#4CAF50">Travel</text>
  
  <!-- Tagline -->
  <text x="150" y="235" text-anchor="middle" font-family="Arial, sans-serif" font-size="10" font-style="italic" fill="#666666">We Make U Travel</text>
</svg>