<?xml version="1.0" encoding="UTF-8"?>
<svg width="400" height="400" viewBox="0 0 400 400" fill="none" xmlns="http://www.w3.org/2000/svg">
  <!-- Circular border (exact replica) -->
  <circle cx="200" cy="200" r="195" fill="#FFFFFF" stroke="#000000" stroke-width="6"/>
  
  <!-- Background sun rays (partial) -->
  <g id="background-sun" transform="translate(100, 100)">
    <g id="rays">
      <line x1="0" y1="30" x2="0" y2="40" stroke="#FFD700" stroke-width="3"/>
      <line x1="0" y1="70" x2="0" y2="80" stroke="#FFD700" stroke-width="3"/>
      <line x1="-20" y1="50" x2="-10" y2="50" stroke="#FFD700" stroke-width="3"/>
      <line x1="10" y1="50" x2="20" y2="50" stroke="#FFD700" stroke-width="3"/>
      <line x1="-15" y1="35" x2="-10" y2="40" stroke="#FFD700" stroke-width="3"/>
      <line x1="10" y1="60" x2="15" y2="65" stroke="#FFD700" stroke-width="3"/>
      <line x1="15" y1="35" x2="10" y2="40" stroke="#FFD700" stroke-width="3"/>
      <line x1="-10" y1="60" x2="-15" y2="65" stroke="#FFD700" stroke-width="3"/>
    </g>
    <circle cx="0" cy="50" r="20" fill="#FFD700"/>
  </g>
  
  <!-- Tricolor arc background (partial) -->
  <path d="M 80 120 Q 150 80 220 120" stroke="#FF6600" stroke-width="8" fill="none" opacity="0.8"/>
  <path d="M 82 125 Q 150 88 218 125" stroke="#FFFFFF" stroke-width="6" fill="none" opacity="0.8"/>
  <path d="M 84 130 Q 150 96 216 130" stroke="#138808" stroke-width="8" fill="none" opacity="0.8"/>
  
  <!-- Green airplane (small) -->
  <g id="small-airplane" transform="translate(300, 130) rotate(-5)">
    <path d="M 0 0 L 12 2 L 10 0 L 12 -2 Z" fill="#138808"/>
    <path d="M 2 -1 L 6 -3 L 7 -1.5 L 4 1 Z" fill="#138808"/>
    <path d="M 2 1 L 6 3 L 7 1.5 L 4 -1 Z" fill="#138808"/>
  </g>
  
  <!-- Dog head (exact replica - main focus) -->
  <g id="dog-head" transform="translate(200, 200)">
    <!-- Head circle -->
    <circle cx="0" cy="0" r="50" fill="#FFFFFF" stroke="#000000" stroke-width="3"/>
    
    <!-- Ears -->
    <ellipse cx="-35" cy="-25" rx="15" ry="25" fill="#E0E0E0" stroke="#000000" stroke-width="2" transform="rotate(-20)"/>
    <ellipse cx="35" cy="-25" rx="15" ry="25" fill="#E0E0E0" stroke="#000000" stroke-width="2" transform="rotate(20)"/>
    
    <!-- Brown hat (exact replica) -->
    <ellipse cx="0" cy="-45" rx="40" ry="15" fill="#A0522D"/>
    <ellipse cx="0" cy="-52" rx="30" ry="10" fill="#8B4513"/>
    <rect x="-2" y="-58" width="4" height="4" fill="#A0522D"/>
    <line x1="-35" y1="-45" x2="35" y2="-45" stroke="#000000" stroke-width="2"/>
    
    <!-- Black sunglasses (exact replica) -->
    <ellipse cx="-12" cy="-5" rx="10" ry="8" fill="#000000"/>
    <ellipse cx="12" cy="-5" rx="10" ry="8" fill="#000000"/>
    <line x1="-2" y1="-5" x2="2" y2="-5" stroke="#000000" stroke-width="2"/>
    <line x1="-22" y1="-5" x2="-30" y2="-2" stroke="#000000" stroke-width="2"/>
    <line x1="22" y1="-5" x2="30" y2="-2" stroke="#000000" stroke-width="2"/>
    
    <!-- Red bandana (exact replica) -->
    <path d="M -25 20 L 0 35 L 25 20 L 18 5 L -18 5 Z" fill="#DC143C"/>
    <path d="M -20 25 L 0 30 L 20 25" stroke="#B22222" stroke-width="2"/>
    
    <!-- Black nose -->
    <ellipse cx="0" cy="5" rx="4" ry="3" fill="#000000"/>
    
    <!-- Pink tongue -->
    <ellipse cx="6" cy="15" rx="5" ry="8" fill="#FF69B4"/>
    
    <!-- Mouth -->
    <path d="M -10 10 Q 0 18 10 10" stroke="#000000" stroke-width="2" fill="none"/>
  </g>
  
  <!-- Small floating travel stickers (exact replica) -->
  <g id="floating-stickers">
    <rect x="320" y="180" width="12" height="8" fill="#FFD700" rx="2" transform="rotate(15)"/>
    <rect x="310" y="220" width="8" height="12" fill="#FF6600" rx="2" transform="rotate(-10)"/>
    <circle cx="335" cy="250" r="5" fill="#1E90FF"/>
    <rect x="90" y="280" width="10" height="8" fill="#138808" rx="1" transform="rotate(20)"/>
  </g>
</svg>