<?xml version="1.0" encoding="UTF-8"?>
<svg width="600" height="400" viewBox="0 0 600 400" fill="none" xmlns="http://www.w3.org/2000/svg">
  <!-- Full scene (exact replica of complete logo) -->
  
  <!-- Sun with rays -->
  <g id="sun">
    <circle cx="120" cy="80" r="30" fill="#FFD700"/>
    <g id="rays">
      <!-- Full radiating sun rays -->
      <line x1="120" y1="35" x2="120" y2="45" stroke="#FFD700" stroke-width="4"/>
      <line x1="120" y1="115" x2="120" y2="125" stroke="#FFD700" stroke-width="4"/>
      <line x1="75" y1="80" x2="85" y2="80" stroke="#FFD700" stroke-width="4"/>
      <line x1="155" y1="80" x2="165" y2="80" stroke="#FFD700" stroke-width="4"/>
      <line x1="95" y1="55" x2="103" y2="63" stroke="#FFD700" stroke-width="4"/>
      <line x1="137" y1="97" x2="145" y2="105" stroke="#FFD700" stroke-width="4"/>
      <line x1="145" y1="55" x2="137" y2="63" stroke="#FFD700" stroke-width="4"/>
      <line x1="103" y1="97" x2="95" y2="105" stroke="#FFD700" stroke-width="4"/>
      <!-- Additional rays -->
      <line x1="103" y1="38" x2="108" y2="47" stroke="#FFD700" stroke-width="3"/>
      <line x1="137" y1="38" x2="132" y2="47" stroke="#FFD700" stroke-width="3"/>
      <line x1="103" y1="122" x2="108" y2="113" stroke="#FFD700" stroke-width="3"/>
      <line x1="137" y1="122" x2="132" y2="113" stroke="#FFD700" stroke-width="3"/>
      <line x1="58" y1="63" x2="67" y2="68" stroke="#FFD700" stroke-width="3"/>
      <line x1="58" y1="97" x2="67" y2="92" stroke="#FFD700" stroke-width="3"/>
      <line x1="182" y1="63" x2="173" y2="68" stroke="#FFD700" stroke-width="3"/>
      <line x1="182" y1="97" x2="173" y2="92" stroke="#FFD700" stroke-width="3"/>
    </g>
  </g>
  
  <!-- Tricolor arc (exact replica) -->
  <path d="M 100 120 Q 220 70 340 120" stroke="#FF6600" stroke-width="18" fill="none"/>
  <path d="M 105 125 Q 220 78 335 125" stroke="#FFFFFF" stroke-width="12" fill="none"/>
  <path d="M 110 130 Q 220 86 330 130" stroke="#138808" stroke-width="18" fill="none"/>
  
  <!-- Green airplane -->
  <g id="airplane" transform="translate(320, 115) rotate(-12)">
    <path d="M 0 0 L 20 4 L 16 0 L 20 -4 Z" fill="#138808"/>
    <path d="M 4 -2 L 12 -6 L 14 -3 L 7 2 Z" fill="#138808"/>
    <path d="M 4 2 L 12 6 L 14 3 L 7 -2 Z" fill="#138808"/>
    <circle cx="8" cy="0" r="2" fill="#FFFFFF"/>
  </g>
  
  <!-- Dog (exact replica) -->
  <g id="dog" transform="translate(220, 180)">
    <!-- Body -->
    <ellipse cx="0" cy="25" rx="40" ry="30" fill="#FFFFFF" stroke="#000000" stroke-width="3"/>
    <!-- Head -->
    <circle cx="0" cy="-5" r="30" fill="#FFFFFF" stroke="#000000" stroke-width="3"/>
    <!-- Ears -->
    <ellipse cx="-22" cy="-15" rx="10" ry="18" fill="#E0E0E0" stroke="#000000" stroke-width="2" transform="rotate(-15)"/>
    <ellipse cx="22" cy="-15" rx="10" ry="18" fill="#E0E0E0" stroke="#000000" stroke-width="2" transform="rotate(15)"/>
    
    <!-- Brown hat -->
    <ellipse cx="0" cy="-28" rx="26" ry="10" fill="#A0522D"/>
    <ellipse cx="0" cy="-33" rx="20" ry="8" fill="#8B4513"/>
    <rect x="-2" y="-38" width="4" height="3" fill="#A0522D"/>
    <line x1="-22" y1="-28" x2="22" y2="-28" stroke="#000000" stroke-width="2"/>
    
    <!-- Black sunglasses -->
    <ellipse cx="-8" cy="-5" rx="7" ry="6" fill="#000000"/>
    <ellipse cx="8" cy="-5" rx="7" ry="6" fill="#000000"/>
    <line x1="-1" y1="-5" x2="1" y2="-5" stroke="#000000" stroke-width="2"/>
    <line x1="-15" y1="-5" x2="-20" y2="-3" stroke="#000000" stroke-width="2"/>
    <line x1="15" y1="-5" x2="20" y2="-3" stroke="#000000" stroke-width="2"/>
    
    <!-- Red bandana -->
    <path d="M -18 8 L 0 18 L 18 8 L 12 -5 L -12 -5 Z" fill="#DC143C"/>
    <path d="M -15 12 L 0 15 L 15 12" stroke="#B22222" stroke-width="2"/>
    
    <!-- Black nose -->
    <ellipse cx="0" cy="2" rx="3" ry="2.5" fill="#000000"/>
    
    <!-- Pink tongue -->
    <ellipse cx="4" cy="8" rx="4" ry="6" fill="#FF69B4"/>
    
    <!-- Mouth -->
    <path d="M -8 5 Q 0 10 8 5" stroke="#000000" stroke-width="2" fill="none"/>
    
    <!-- Legs -->
    <ellipse cx="-18" cy="50" rx="6" ry="15" fill="#FFFFFF" stroke="#000000" stroke-width="2"/>
    <ellipse cx="-6" cy="50" rx="6" ry="15" fill="#FFFFFF" stroke="#000000" stroke-width="2"/>
    <ellipse cx="6" cy="50" rx="6" ry="15" fill="#FFFFFF" stroke="#000000" stroke-width="2"/>
    <ellipse cx="18" cy="50" rx="6" ry="15" fill="#FFFFFF" stroke="#000000" stroke-width="2"/>
    
    <!-- Tail -->
    <path d="M -35 20 Q -55 15 -50 -5 Q -45 -15 -40 -10" stroke="#000000" stroke-width="3" fill="none"/>
  </g>
  
  <!-- Suitcase (exact replica) -->
  <g id="suitcase" transform="translate(340, 220)">
    <rect x="0" y="0" width="50" height="40" fill="#8B4513" stroke="#654321" stroke-width="2" rx="4"/>
    <rect x="3" y="3" width="44" height="34" fill="#A0522D" rx="2"/>
    
    <!-- Handle -->
    <rect x="22" y="-4" width="6" height="8" fill="#654321" rx="3"/>
    
    <!-- Travel stickers -->
    <circle cx="13" cy="10" r="4" fill="#FF6600"/>
    <rect x="28" y="16" width="8" height="5" fill="#138808" rx="1"/>
    <circle cx="18" cy="26" r="3" fill="#1E90FF"/>
    <rect x="33" y="8" width="6" height="5" fill="#FFD700" rx="1"/>
    <rect x="10" y="22" width="5" height="4" fill="#FF1493" rx="1"/>
    
    <!-- Corner reinforcements -->
    <circle cx="5" cy="5" r="2" fill="#654321"/>
    <circle cx="45" cy="5" r="2" fill="#654321"/>
    <circle cx="5" cy="35" r="2" fill="#654321"/>
    <circle cx="45" cy="35" r="2" fill="#654321"/>
    
    <!-- Wheels -->
    <circle cx="12" cy="42" r="3" fill="#333333"/>
    <circle cx="38" cy="42" r="3" fill="#333333"/>
  </g>
  
  <!-- Floating travel stickers -->
  <g id="floating-stickers">
    <rect x="280" y="160" width="10" height="8" fill="#FFD700" rx="2" transform="rotate(10)"/>
    <rect x="420" y="180" width="8" height="10" fill="#FF6600" rx="2" transform="rotate(-15)"/>
    <circle cx="450" cy="200" r="4" fill="#1E90FF"/>
    <rect x="100" y="200" width="8" height="6" fill="#138808" rx="1" transform="rotate(25)"/>
  </g>
  
  <!-- Text (exact replica) -->
  <g id="text">
    <text x="220" y="320" text-anchor="middle" font-family="Arial, sans-serif" font-size="42" font-weight="bold" fill="#FF6600">Maku</text>
    <text x="280" y="320" text-anchor="start" font-family="Arial, sans-serif" font-size="42" font-weight="bold" fill="#138808">.Travel</text>
    <text x="300" y="350" text-anchor="middle" font-family="Arial, sans-serif" font-size="20" font-weight="500" fill="#666666">(We Make "U" Travel)</text>
  </g>
</svg>