<?xml version="1.0" encoding="UTF-8"?>
<svg width="400" height="400" viewBox="0 0 400 400" fill="none" xmlns="http://www.w3.org/2000/svg">
  <!-- Based on exact user-uploaded head-only circular logo -->
  
  <!-- Circular background with border -->
  <circle cx="200" cy="200" r="195" fill="#FFFFFF" stroke="#000000" stroke-width="4"/>
  
  <!-- Partial sun rays in background -->
  <g id="background-sun" transform="translate(120, 120)">
    <g id="rays">
      <line x1="0" y1="25" x2="0" y2="35" stroke="#FFD700" stroke-width="2"/>
      <line x1="0" y1="65" x2="0" y2="75" stroke="#FFD700" stroke-width="2"/>
      <line x1="-20" y1="50" x2="-10" y2="50" stroke="#FFD700" stroke-width="2"/>
      <line x1="10" y1="50" x2="20" y2="50" stroke="#FFD700" stroke-width="2"/>
      <line x1="-15" y1="35" x2="-10" y2="40" stroke="#FFD700" stroke-width="2"/>
      <line x1="10" y1="60" x2="15" y2="65" stroke="#FFD700" stroke-width="2"/>
      <line x1="15" y1="35" x2="10" y2="40" stroke="#FFD700" stroke-width="2"/>
      <line x1="-10" y1="60" x2="-15" y2="65" stroke="#FFD700" stroke-width="2"/>
    </g>
    <circle cx="0" cy="50" r="15" fill="#FFD700"/>
  </g>
  
  <!-- Partial tricolor arc in background -->
  <path d="M 100 140 Q 170 100 240 140" stroke="#FF6600" stroke-width="6" fill="none" opacity="0.7"/>
  <path d="M 102 145 Q 170 108 238 145" stroke="#FFFFFF" stroke-width="4" fill="none" opacity="0.7"/>
  <path d="M 104 150 Q 170 116 236 150" stroke="#138808" stroke-width="6" fill="none" opacity="0.7"/>
  
  <!-- Small green airplane -->
  <g id="small-airplane" transform="translate(290, 150) rotate(-8)">
    <path d="M 0 0 L 10 2 L 8 0 L 10 -2 Z" fill="#138808"/>
    <path d="M 2 -1 L 5 -2.5 L 6 -1 L 3.5 1 Z" fill="#138808"/>
    <path d="M 2 1 L 5 2.5 L 6 1 L 3.5 -1 Z" fill="#138808"/>
  </g>
  
  <!-- Main focus: Dog head (larger, centered) -->
  <g id="dog-head" transform="translate(200, 200)">
    <!-- Head circle -->
    <circle cx="0" cy="0" r="45" fill="#FFFFFF" stroke="#000000" stroke-width="3"/>
    
    <!-- Ears -->
    <ellipse cx="-32" cy="-20" rx="12" ry="22" fill="#E8E8E8" stroke="#000000" stroke-width="2" transform="rotate(-20)"/>
    <ellipse cx="32" cy="-20" rx="12" ry="22" fill="#E8E8E8" stroke="#000000" stroke-width="2" transform="rotate(20)"/>
    
    <!-- Brown hat (prominent in head-only version) -->
    <ellipse cx="0" cy="-38" rx="35" ry="12" fill="#8B4513"/>
    <ellipse cx="0" cy="-44" rx="26" ry="8" fill="#A0522D"/>
    <rect x="-2" y="-50" width="4" height="3" fill="#8B4513"/>
    <line x1="-30" y1="-38" x2="30" y2="-38" stroke="#654321" stroke-width="2"/>
    
    <!-- Black sunglasses (prominent) -->
    <ellipse cx="-10" cy="-5" rx="8" ry="6.5" fill="#000000"/>
    <ellipse cx="10" cy="-5" rx="8" ry="6.5" fill="#000000"/>
    <line x1="-2" y1="-5" x2="2" y2="-5" stroke="#000000" stroke-width="2"/>
    <line x1="-18" y1="-5" x2="-25" y2="-2" stroke="#000000" stroke-width="2"/>
    <line x1="18" y1="-5" x2="25" y2="-2" stroke="#000000" stroke-width="2"/>
    
    <!-- Red bandana (prominent in head version) -->
    <path d="M -22 15 L 0 28 L 22 15 L 16 0 L -16 0 Z" fill="#DC143C"/>
    <path d="M -18 20 L 0 24 L 18 20" stroke="#B22222" stroke-width="2"/>
    <circle cx="-12" cy="12" r="1.5" fill="#8B0000"/>
    <circle cx="12" cy="12" r="1.5" fill="#8B0000"/>
    
    <!-- Black nose -->
    <ellipse cx="0" cy="5" r="3" fill="#000000"/>
    
    <!-- Pink tongue -->
    <ellipse cx="5" cy="15" rx="4" ry="6" fill="#FF69B4"/>
    
    <!-- Mouth -->
    <path d="M -8 10 Q 0 16 8 10" stroke="#000000" stroke-width="2" fill="none"/>
    
    <!-- Neck portion -->
    <ellipse cx="0" cy="35" rx="25" ry="15" fill="#FFFFFF" stroke="#000000" stroke-width="2"/>
  </g>
  
  <!-- Small floating travel stickers around the edges -->
  <g id="floating-stickers">
    <rect x="310" y="180" width="8" height="6" fill="#FFD700" rx="1" transform="rotate(12)"/>
    <rect x="300" y="220" width="6" height="8" fill="#FF6600" rx="1" transform="rotate(-8)"/>
    <circle cx="325" cy="250" r="3" fill="#1E90FF"/>
    <rect x="100" y="280" width="7" height="5" fill="#138808" rx="1" transform="rotate(18)"/>
    <rect x="80" y="180" width="5" height="6" fill="#FF1493" rx="0.5" transform="rotate(-12)"/>
    <circle cx="320" cy="120" r="2.5" fill="#FFD700"/>
  </g>
</svg>