<?xml version="1.0" encoding="UTF-8"?>
<svg width="400" height="400" viewBox="0 0 400 400" fill="none" xmlns="http://www.w3.org/2000/svg">
  <!-- Black circular border (exact replica) -->
  <circle cx="200" cy="200" r="195" fill="none" stroke="#000000" stroke-width="10"/>
  <circle cx="200" cy="200" r="180" fill="#FFFFFF"/>
  
  <!-- Sun with rays (exact position and style) -->
  <g id="sun">
    <circle cx="140" cy="120" r="25" fill="#FFD700"/>
    <g id="rays">
      <!-- Radiating sun rays - exact replica -->
      <line x1="140" y1="85" x2="140" y2="95" stroke="#FFD700" stroke-width="3"/>
      <line x1="140" y1="145" x2="140" y2="155" stroke="#FFD700" stroke-width="3"/>
      <line x1="105" y1="120" x2="115" y2="120" stroke="#FFD700" stroke-width="3"/>
      <line x1="165" y1="120" x2="175" y2="120" stroke="#FFD700" stroke-width="3"/>
      <line x1="120" y1="100" x2="125" y2="105" stroke="#FFD700" stroke-width="3"/>
      <line x1="155" y1="135" x2="160" y2="140" stroke="#FFD700" stroke-width="3"/>
      <line x1="160" y1="100" x2="155" y2="105" stroke="#FFD700" stroke-width="3"/>
      <line x1="125" y1="135" x2="120" y2="140" stroke="#FFD700" stroke-width="3"/>
      <!-- Additional rays for exact match -->
      <line x1="127" y1="88" x2="131" y2="96" stroke="#FFD700" stroke-width="2"/>
      <line x1="153" y1="88" x2="149" y2="96" stroke="#FFD700" stroke-width="2"/>
      <line x1="127" y1="152" x2="131" y2="144" stroke="#FFD700" stroke-width="2"/>
      <line x1="153" y1="152" x2="149" y2="144" stroke="#FFD700" stroke-width="2"/>
      <line x1="88" y1="107" x2="96" y2="111" stroke="#FFD700" stroke-width="2"/>
      <line x1="88" y1="133" x2="96" y2="129" stroke="#FFD700" stroke-width="2"/>
      <line x1="192" y1="107" x2="184" y2="111" stroke="#FFD700" stroke-width="2"/>
      <line x1="192" y1="133" x2="184" y2="129" stroke="#FFD700" stroke-width="2"/>
    </g>
  </g>
  
  <!-- Tricolor arc (Indian flag colors - exact replica) -->
  <path d="M 120 150 Q 200 100 280 150" stroke="#FF6600" stroke-width="12" fill="none"/>
  <path d="M 122 155 Q 200 108 278 155" stroke="#FFFFFF" stroke-width="8" fill="none"/>
  <path d="M 124 160 Q 200 116 276 160" stroke="#138808" stroke-width="12" fill="none"/>
  
  <!-- Green airplane (exact position) -->
  <g id="airplane" transform="translate(270, 140) rotate(-10)">
    <path d="M 0 0 L 15 3 L 12 0 L 15 -3 Z" fill="#138808"/>
    <path d="M 3 -1.5 L 8 -4 L 9 -2 L 5 1.5 Z" fill="#138808"/>
    <path d="M 3 1.5 L 8 4 L 9 2 L 5 -1.5 Z" fill="#138808"/>
  </g>
  
  <!-- Dog with exact styling -->
  <g id="dog" transform="translate(200, 220)">
    <!-- Body -->
    <ellipse cx="0" cy="20" rx="35" ry="25" fill="#FFFFFF" stroke="#000000" stroke-width="2"/>
    <!-- Head -->
    <circle cx="0" cy="-10" r="25" fill="#FFFFFF" stroke="#000000" stroke-width="2"/>
    <!-- Ears -->
    <ellipse cx="-18" cy="-18" rx="8" ry="14" fill="#E0E0E0" stroke="#000000" stroke-width="1.5" transform="rotate(-15)"/>
    <ellipse cx="18" cy="-18" rx="8" ry="14" fill="#E0E0E0" stroke="#000000" stroke-width="1.5" transform="rotate(15)"/>
    
    <!-- Brown hat (exact replica) -->
    <ellipse cx="0" cy="-28" rx="22" ry="8" fill="#A0522D"/>
    <ellipse cx="0" cy="-32" rx="16" ry="6" fill="#8B4513"/>
    <rect x="-1.5" y="-36" width="3" height="2" fill="#A0522D"/>
    <line x1="-20" y1="-28" x2="20" y2="-28" stroke="#000000" stroke-width="1.5"/>
    
    <!-- Black sunglasses (exact replica) -->
    <ellipse cx="-7" cy="-8" rx="6" ry="5" fill="#000000"/>
    <ellipse cx="7" cy="-8" rx="6" ry="5" fill="#000000"/>
    <line x1="-1" y1="-8" x2="1" y2="-8" stroke="#000000" stroke-width="1.5"/>
    <line x1="-13" y1="-8" x2="-18" y2="-6" stroke="#000000" stroke-width="1.5"/>
    <line x1="13" y1="-8" x2="18" y2="-6" stroke="#000000" stroke-width="1.5"/>
    
    <!-- Red bandana/neckerchief (exact replica) -->
    <path d="M -15 5 L 0 15 L 15 5 L 10 -2 L -10 -2 Z" fill="#DC143C"/>
    <path d="M -12 8 L 0 12 L 12 8" stroke="#B22222" stroke-width="1"/>
    
    <!-- Black nose -->
    <ellipse cx="0" cy="-2" rx="2.5" ry="2" fill="#000000"/>
    
    <!-- Pink tongue -->
    <ellipse cx="3" cy="2" rx="3" ry="4" fill="#FF69B4"/>
    
    <!-- Mouth line -->
    <path d="M -6 1 Q 0 4 6 1" stroke="#000000" stroke-width="1.5" fill="none"/>
    
    <!-- Legs -->
    <ellipse cx="-15" cy="40" rx="5" ry="12" fill="#FFFFFF" stroke="#000000" stroke-width="1.5"/>
    <ellipse cx="-5" cy="40" rx="5" ry="12" fill="#FFFFFF" stroke="#000000" stroke-width="1.5"/>
    <ellipse cx="5" cy="40" rx="5" ry="12" fill="#FFFFFF" stroke="#000000" stroke-width="1.5"/>
    <ellipse cx="15" cy="40" rx="5" ry="12" fill="#FFFFFF" stroke="#000000" stroke-width="1.5"/>
    
    <!-- Tail -->
    <path d="M -30 15 Q -45 10 -42 -5 Q -38 -12 -35 -8" stroke="#000000" stroke-width="2.5" fill="none"/>
  </g>
  
  <!-- Suitcase (exact replica) -->
  <g id="suitcase" transform="translate(280, 250)">
    <rect x="0" y="0" width="40" height="30" fill="#8B4513" stroke="#654321" stroke-width="1.5" rx="3"/>
    <rect x="2" y="2" width="36" height="26" fill="#A0522D" rx="2"/>
    
    <!-- Handle -->
    <rect x="18" y="-3" width="4" height="6" fill="#654321" rx="2"/>
    
    <!-- Travel stickers (exact replica) -->
    <circle cx="10" cy="8" r="3" fill="#FF6600"/>
    <rect x="22" y="12" width="6" height="4" fill="#138808" rx="1"/>
    <circle cx="15" cy="20" r="2.5" fill="#1E90FF"/>
    <rect x="26" y="5" width="5" height="4" fill="#FFD700" rx="1"/>
    <rect x="8" y="18" width="4" height="3" fill="#FF1493" rx="0.5"/>
    
    <!-- Corner reinforcements -->
    <circle cx="4" cy="4" r="1.5" fill="#654321"/>
    <circle cx="36" cy="4" r="1.5" fill="#654321"/>
    <circle cx="4" cy="26" r="1.5" fill="#654321"/>
    <circle cx="36" cy="26" r="1.5" fill="#654321"/>
    
    <!-- Wheels -->
    <circle cx="8" cy="32" r="2.5" fill="#333333"/>
    <circle cx="32" cy="32" r="2.5" fill="#333333"/>
  </g>

  <!-- Small travel stickers floating (exact replica) -->
  <g id="floating-stickers" transform="translate(240, 180)">
    <rect x="0" y="0" width="8" height="6" fill="#FFD700" rx="1"/>
    <rect x="12" y="8" width="6" height="8" fill="#FF6600" rx="1"/>
    <circle cx="5" cy="15" r="3" fill="#1E90FF"/>
  </g>
</svg>